
<svg width="1200" height="500" xmlns="http://www.w3.org/2000/svg" xmlns:xlink="http://www.w3.org/1999/xlink" version="1.1">
  <!-- Background with rounded corners -->
  <defs>
    <clipPath id="rounded-clip">
      <rect x="0" y="0" width="1200" height="500" rx="20" ry="20"/>
    </clipPath>
    <!-- Clip paths for rounded images -->
    <!--
    <clipPath id="circle-clip">
      <circle cx="30" cy="30" width="30" height="30" r="90"/>
    </clipPath>
    -->
  </defs>



  <!-- Background -->
  <rect width="100%" height="100%" fill="#2c3e50" clip-path="url(#rounded-clip)"/>

  <!-- Sezione Top Artists -->
  <g fill="white" font-family="Arial" font-size="20" clip-path="url(#rounded-clip)">
    <text x="20" y="40" font-size="30" font-weight="bold" fill="white">Top 10 Artists:</text>
    <image x="10" y="80" width="30" height="30" xlink:href="https://i.scdn.co/image/ab67616d0000b2733e97097d544a704eb344cbe4" clip-path="url(#circle-clip)"/><text x="50" y="100" font-size="20" fill="white" width="250" overflow="visible">yungest Moonstar</text><image x="10" y="120" width="30" height="30" xlink:href="https://i.scdn.co/image/ab6761610000e5eb4293385d324db8558179afd9" clip-path="url(#circle-clip)"/><text x="50" y="140" font-size="20" fill="white" width="250" overflow="visible">Drake</text><image x="10" y="160" width="30" height="30" xlink:href="https://i.scdn.co/image/ab6761610000e5eb18505fd55b5918fe7c6b1fcc" clip-path="url(#circle-clip)"/><text x="50" y="180" font-size="20" fill="white" width="250" overflow="visible">Pinguini Tattici Nucleari</text><image x="10" y="200" width="30" height="30" xlink:href="https://i.scdn.co/image/ab6761610000e5eb8044505721270eb00050b188" clip-path="url(#circle-clip)"/><text x="50" y="220" font-size="20" fill="white" width="250" overflow="visible">Coez</text><image x="10" y="240" width="30" height="30" xlink:href="https://i.scdn.co/image/ab6761610000e5eba00b11c129b27a88fc72f36b" clip-path="url(#circle-clip)"/><text x="50" y="260" font-size="20" fill="white" width="250" overflow="visible">Eminem</text><image x="10" y="280" width="30" height="30" xlink:href="https://i.scdn.co/image/ab6761610000e5eb84a0dd74f21e8acce6a9fd49" clip-path="url(#circle-clip)"/><text x="50" y="300" font-size="20" fill="white" width="250" overflow="visible">Linkin Park</text><image x="10" y="320" width="30" height="30" xlink:href="https://i.scdn.co/image/ab6761610000e5eb6cbf5f96f5dc45584cdae566" clip-path="url(#circle-clip)"/><text x="50" y="340" font-size="20" fill="white" width="250" overflow="visible">ANNA</text><image x="10" y="360" width="30" height="30" xlink:href="https://i.scdn.co/image/ab6761610000e5eb2ab61d146599aeea3bdd771a" clip-path="url(#circle-clip)"/><text x="50" y="380" font-size="20" fill="white" width="250" overflow="visible">thasup</text><image x="10" y="400" width="30" height="30" xlink:href="https://i.scdn.co/image/ab6761610000e5eb0eefd7d68573ea8f0f4db84a" clip-path="url(#circle-clip)"/><text x="50" y="420" font-size="20" fill="white" width="250" overflow="visible">Lil Nas X</text><image x="10" y="440" width="30" height="30" xlink:href="https://i.scdn.co/image/ab6761610000e5ebda789181e4ece5949757f419" clip-path="url(#circle-clip)"/><text x="50" y="460" font-size="20" fill="white" width="250" overflow="visible">Sidewalks and Skeletons</text>
  </g>

  <!-- Separatore -->
  <line x1="340" y1="20" x2="340" y2="1000" stroke="white" stroke-width="2" clip-path="url(#rounded-clip)"/>

  <!-- Sezione Top Tracks -->
  <g fill="white" font-family="Arial" font-size="20" clip-path="url(#rounded-clip)">
    <text x="360" y="40" font-size="30" font-weight="bold" fill="white">Top 10 songs:</text>
    <image x="360" y="80" width="30" height="30" xlink:href="https://i.scdn.co/image/ab67616d0000b273f6da146e4b29f6cb182c6a72" clip-path="url(#circle-clip)"/><text x="400" y="100" font-size="20" fill="white" width="250" overflow="visible">gRaZie A Dio</text><image x="360" y="120" width="30" height="30" xlink:href="https://i.scdn.co/image/ab67616d0000b273f6da146e4b29f6cb182c6a72" clip-path="url(#circle-clip)"/><text x="400" y="140" font-size="20" fill="white" width="250" overflow="visible">mooNsTaR tReK</text><image x="360" y="160" width="30" height="30" xlink:href="https://i.scdn.co/image/ab67616d0000b27323e2af3e96fa7af0bd297e38" clip-path="url(#circle-clip)"/><text x="400" y="180" font-size="20" fill="white" width="250" overflow="visible">Bourgeoisieses</text><image x="360" y="200" width="30" height="30" xlink:href="https://i.scdn.co/image/ab67616d0000b2735094c7ddde5b276cf014875d" clip-path="url(#circle-clip)"/><text x="400" y="220" font-size="20" fill="white" width="250" overflow="visible">EMPTY DREAMS</text><image x="360" y="240" width="30" height="30" xlink:href="https://i.scdn.co/image/ab67616d0000b2735365fbb472e50f9d5a5c6828" clip-path="url(#circle-clip)"/><text x="400" y="260" font-size="20" fill="white" width="250" overflow="visible">ALIEN FLAME</text><image x="360" y="280" width="30" height="30" xlink:href="https://i.scdn.co/image/ab67616d0000b2730e6097926fdc728802f930fe" clip-path="url(#circle-clip)"/><text x="400" y="300" font-size="20" fill="white" width="250" overflow="visible">RENEGADE</text><image x="360" y="320" width="30" height="30" xlink:href="https://i.scdn.co/image/ab67616d0000b2735fadc5fb1c4b1eb60798c7bc" clip-path="url(#circle-clip)"/><text x="400" y="340" font-size="20" fill="white" width="250" overflow="visible">Gli anni (96)</text><image x="360" y="360" width="30" height="30" xlink:href="https://i.scdn.co/image/ab67616d0000b273ee7af6e271d04c728d8a47ba" clip-path="url(#circle-clip)"/><text x="400" y="380" font-size="20" fill="white" width="250" overflow="visible">Bando</text><image x="360" y="400" width="30" height="30" xlink:href="https://i.scdn.co/image/ab67616d0000b273e819b286432a124e510dc87b" clip-path="url(#circle-clip)"/><text x="400" y="420" font-size="20" fill="white" width="250" overflow="visible">Be Mine</text><image x="360" y="440" width="30" height="30" xlink:href="https://i.scdn.co/image/ab67616d0000b273427c80da235cb76fc89b8e27" clip-path="url(#circle-clip)"/><text x="400" y="460" font-size="20" fill="white" width="250" overflow="visible">Montagem Mysterious Game</text>
  </g>

  <!-- Separatore -->
  <line x1="680" y1="20" x2="680" y2="1000" stroke="white" stroke-width="2" clip-path="url(#rounded-clip)"/>

  <!-- Sezione Recent Tracks -->
  <g fill="white" font-family="Arial" font-size="20" clip-path="url(#rounded-clip)">
    <text x="700" y="40" font-size="30" font-weight="bold" fill="white">Last 10 Songs Listened To:</text>
    <image x="700" y="80" width="30" height="30" xlink:href="https://i.scdn.co/image/ab67616d0000b2738f05338b112b25d40aad90c6" clip-path="url(#circle-clip)"/><text x="740" y="100" font-size="20" fill="white" width="250" overflow="visible">Occhi rossi</text><image x="700" y="120" width="30" height="30" xlink:href="https://i.scdn.co/image/ab67616d0000b273abdde781e79a44868914e661" clip-path="url(#circle-clip)"/><text x="740" y="140" font-size="20" fill="white" width="250" overflow="visible">bowie box</text><image x="700" y="160" width="30" height="30" xlink:href="https://i.scdn.co/image/ab67616d0000b2733f66b5b49ccea004a5ef0db2" clip-path="url(#circle-clip)"/><text x="740" y="180" font-size="20" fill="white" width="250" overflow="visible">Lose Yourself</text><image x="700" y="200" width="30" height="30" xlink:href="https://i.scdn.co/image/ab67616d0000b27382b1779740b1d1b908289ae7" clip-path="url(#circle-clip)"/><text x="740" y="220" font-size="20" fill="white" width="250" overflow="visible">Dentista Croazia</text><image x="700" y="240" width="30" height="30" xlink:href="https://i.scdn.co/image/ab67616d0000b2732f8e03f94d0f06626ee0c40f" clip-path="url(#circle-clip)"/><text x="740" y="260" font-size="20" fill="white" width="250" overflow="visible">BABYDOLL (Speed)</text><image x="700" y="280" width="30" height="30" xlink:href="https://i.scdn.co/image/ab67616d0000b27322ae5b5ba67f6f218b5f3e34" clip-path="url(#circle-clip)"/><text x="740" y="300" font-size="20" fill="white" width="250" overflow="visible">La Nuova Stella Di Broadway</text><image x="700" y="320" width="30" height="30" xlink:href="https://i.scdn.co/image/ab67616d0000b2739261f91fa75a5c2791a46b10" clip-path="url(#circle-clip)"/><text x="740" y="340" font-size="20" fill="white" width="250" overflow="visible">let them know they're on your mind</text><image x="700" y="360" width="30" height="30" xlink:href="https://i.scdn.co/image/ab67616d0000b273ca2e09fd52e6330146ea9550" clip-path="url(#circle-clip)"/><text x="740" y="380" font-size="20" fill="white" width="250" overflow="visible">Lost</text><image x="700" y="400" width="30" height="30" xlink:href="https://i.scdn.co/image/ab67616d0000b2734121faee8df82c526cbab2be" clip-path="url(#circle-clip)"/><text x="740" y="420" font-size="20" fill="white" width="250" overflow="visible">Billie Jean</text><image x="700" y="440" width="30" height="30" xlink:href="https://i.scdn.co/image/ab67616d0000b27334933308ad8af9d87cd504dc" clip-path="url(#circle-clip)"/><text x="740" y="460" font-size="20" fill="white" width="250" overflow="visible">One Last Time</text>
  </g>
</svg>
